<svg width="500" height="500" viewBox="0 0 1200 1200" fill="none" xmlns="http://www.w3.org/2000/svg">
<path d="M0 1200H1200V2.68221e-05H0V1200Z" fill="white"/>
<path d="M1026.76 793.77C1012.3 760.878 984.528 733.428 951.168 719.922C916.422 705.852 876.522 710.97 839.922 706.26C808.134 702.162 785.202 687.972 766.218 662.742C748.032 638.568 731.73 611.796 701.994 600.612C678.498 591.78 651.786 594.228 628.434 603.438C585.405 620.4 552.906 656.472 525.535 692.412C500.545 725.226 480.162 761.154 433.938 762.324C413.02 762.858 392.556 757.752 372.106 752.646C347.338 746.46 322.59 740.274 297.082 744.108C235.531 753.348 184.272 804.588 173.531 865.584C163.464 922.752 188.725 978.204 232.123 1010.78H978.054C1032.74 952.77 1061.44 872.634 1026.76 793.77Z" fill="#F7F0E3"/>
<path d="M352.451 1010.78H354.503C368.753 995.118 379.916 976.11 387.013 955.014C398.498 920.868 398.014 885.03 385.649 854.106C379.4 838.482 370.377 823.914 361.651 809.826C352.8 795.546 343.649 780.774 337.438 764.94C334.87 758.4 332.974 751.368 331.832 744.198C331.318 744.132 330.803 744.078 330.289 744.018C331.436 751.44 333.386 758.718 336.043 765.492C342.302 781.446 351.49 796.278 360.376 810.618C369.068 824.652 378.056 839.16 384.256 854.664C396.489 885.258 396.963 920.73 385.591 954.54C378.407 975.894 367.01 995.082 352.451 1010.78" fill="white"/>
<path d="M974.448 945.726C989.82 949.002 1004.63 951.942 1018.96 953.79C1019.2 953.316 1019.44 952.836 1019.68 952.362C1005.24 950.526 990.288 947.568 974.766 944.262C951.126 939.222 925.536 933.774 900.162 933.774C884.448 933.774 868.818 935.862 853.782 941.436C848.082 943.548 842.592 946.224 837.366 949.416C823.788 943.626 810.138 937.308 796.62 930.378C806.43 922.986 816.342 915.744 826.368 908.748C900.75 856.806 969.402 827.358 1035.73 819C1035.59 818.514 1035.46 818.028 1035.32 817.542C968.814 825.966 900.018 855.492 825.504 907.518C815.274 914.664 805.152 922.062 795.138 929.61C779.928 921.756 764.91 913.122 750.366 903.594C723.996 886.314 692.622 861.648 665.226 828.876C771.396 816.96 879.486 801.954 967.758 742.962C971.106 740.718 974.82 738.078 978.666 735.084C978.24 734.778 977.814 734.484 977.382 734.184C973.698 737.04 970.14 739.56 966.924 741.714C878.676 800.694 770.382 815.586 664.08 827.496C644.718 804.078 627.42 776.568 615.396 744.726C596.674 695.124 597.663 646.452 618.114 611.184C619.002 609.654 619.938 608.142 620.904 606.648C620.052 607.044 619.206 607.452 618.36 607.854C617.832 608.706 617.316 609.564 616.812 610.428C596.139 646.092 595.111 695.232 613.992 745.26C625.95 776.928 643.092 804.324 662.298 827.688C656.142 828.378 649.986 829.062 643.854 829.734C621.714 832.176 598.823 834.708 576.595 837.57C568.482 838.614 560.231 839.832 552.021 841.356C534.422 804.21 515.089 767.976 490.099 736.896C489.742 737.256 489.378 737.598 489.017 737.952C513.793 768.792 533.005 804.762 550.497 841.644C514.689 848.472 479.918 861.312 461.353 891.192C444.014 919.098 444.03 957.672 461.4 1005.84C462 1007.51 462.619 1009.15 463.246 1010.78H464.853C464.165 1009 463.482 1007.2 462.81 1005.33C445.604 957.618 445.543 919.482 462.627 891.984C480.972 862.458 515.552 849.792 551.161 843.042C557.374 856.188 563.376 869.436 569.341 882.606L569.99 884.04C590.706 929.772 612.132 973.902 640.188 1010.78H642.06C613.746 973.836 592.201 929.436 571.357 883.422L570.708 881.988C564.793 868.932 558.841 855.792 552.685 842.76C560.737 841.272 568.828 840.078 576.787 839.058C599.001 836.196 621.882 833.67 644.016 831.228C650.478 830.514 656.958 829.8 663.438 829.074C691.098 862.362 722.868 887.37 749.544 904.848C763.926 914.274 778.782 922.824 793.812 930.618C768.294 949.914 743.472 970.218 719.244 990.048C710.85 996.912 702.36 1003.85 693.804 1010.78H696.186C704.256 1004.23 712.266 997.686 720.192 991.206C744.594 971.244 769.59 950.79 795.288 931.38C808.734 938.298 822.306 944.604 835.812 950.382C817.338 962.13 802.278 980.328 793.176 1002.42C792.036 1005.19 791.04 1007.98 790.116 1010.78H791.7C792.57 1008.17 793.5 1005.57 794.562 1002.99C803.694 980.838 818.874 962.658 837.492 951.096C875.244 967.134 912.342 979.038 944.226 988.47L945.426 988.824C958.86 992.802 972.6 996.87 984.756 1003.41C985.092 1003.02 985.434 1002.64 985.77 1002.25C973.422 995.544 959.478 991.416 945.846 987.39L944.646 987.036C913.092 977.694 876.42 965.934 839.07 950.136C843.936 947.244 849.03 944.796 854.304 942.84C893.22 928.422 936.378 937.614 974.448 945.726" fill="white"/>
<path d="M235.882 848.568C242.508 875.682 239.552 904.968 227.772 928.92C220.057 944.604 208.915 958.8 195.191 970.998C195.464 971.424 195.743 971.844 196.02 972.264C209.967 959.91 221.287 945.504 229.119 929.58C241.051 905.322 244.048 875.664 237.339 848.208C232.099 826.758 221.563 808.59 207.006 795.444C206.681 795.822 206.359 796.206 206.038 796.59C220.353 809.538 230.719 827.43 235.882 848.568" fill="white"/>
<path d="M575.375 505.032C588.443 518.382 594.3 540.876 587.094 561.618C580.118 581.7 564.825 598.332 546.451 609.03C531.668 617.634 512.384 622.38 497.844 613.368C486.979 606.636 481.345 593.424 481.032 580.65C480.719 567.87 485.016 555.414 490.327 543.792C497.814 527.4 507.89 511.512 522.9 501.546C543.591 487.806 562.814 492.192 575.375 505.032" fill="#F7F0E3"/>
<path d="M296.207 268.662H399.911V224.82H296.207V268.662ZM402.161 270.912H293.957V222.57H402.161V270.912Z" fill="#E9DDCA"/>
<path d="M225.814 314.886H329.518V271.05H225.814V314.886ZM331.768 317.136H223.564V268.8H331.768V317.136Z" fill="#E9DDCA"/>
<path d="M1017.82 368.646C1010.81 345.348 998.49 323.958 980.85 304.404C963.174 284.85 939.066 268.704 908.526 255.936C877.986 243.168 839.184 236.784 792.114 236.784C754.572 236.784 716.31 241.848 677.328 251.976C638.304 262.14 604.464 276.594 575.755 295.38L613.122 397.962L593.095 414.186L622.14 422.724C650.808 407.718 676.932 396.822 700.5 390.036C724.032 383.286 749.04 379.908 775.554 379.908C802.032 379.908 822.078 386.292 835.698 399.06C849.312 411.864 856.104 427.236 856.104 445.29C856.104 467.082 849.102 486.414 835.158 503.328C821.148 520.242 805.698 537.336 788.778 554.622C777.024 566.616 765.6 579.018 754.572 591.786C743.544 604.59 733.77 618.276 725.328 632.952C716.844 647.586 710.058 663.366 704.916 680.28C699.744 697.194 697.194 716.16 697.194 737.184C697.194 743.97 697.338 752.04 697.734 761.436C697.8 763.164 697.89 764.856 697.992 766.524H670.536L700.5 786.786H846.186C845.436 782.274 845.076 777.024 845.076 771.012C845.076 764.994 845.076 760.482 845.076 757.47C845.076 744.702 847.662 732.12 852.798 719.718C857.94 707.316 864.402 695.502 872.13 684.204C879.852 672.942 888.474 662.226 898.068 652.104C907.626 641.94 916.824 632.364 925.662 623.34C937.41 611.34 949.554 598.572 962.058 585.036C974.562 571.494 985.626 557.262 995.184 542.22C1004.74 527.178 1012.64 510.852 1018.9 493.164C1025.15 475.518 1028.31 456.186 1028.31 435.126C1028.31 414.102 1024.79 391.944 1017.82 368.646" fill="#E49B31"/>
<path d="M744.708 372.75C718.506 372.75 693.792 376.02 670.536 382.554C647.244 389.118 621.426 399.666 593.095 414.186L547.255 290.946C575.625 272.766 609.072 258.774 647.634 248.94C686.16 239.136 723.972 234.24 761.076 234.24C807.594 234.24 845.94 240.42 876.12 252.774C906.3 265.128 930.126 280.752 947.598 299.676C965.028 318.606 977.208 339.306 984.132 361.848C991.02 384.396 994.5 405.846 994.5 426.192C994.5 446.568 991.374 465.282 985.2 482.364C979.02 499.476 971.208 515.274 961.764 529.836C952.32 544.392 941.382 558.168 929.028 571.272C916.668 584.376 904.668 596.73 893.058 608.34C884.322 617.076 875.232 626.34 865.788 636.18C856.308 645.978 847.788 656.346 840.15 667.248C832.518 678.18 826.128 689.616 821.052 701.616C815.97 713.616 813.414 725.796 813.414 738.15C813.414 741.066 813.414 745.434 813.414 751.254C813.414 757.08 813.768 762.156 814.518 766.524H670.536C669.042 759.246 668.154 751.08 667.8 741.99C667.41 732.9 667.266 725.088 667.266 718.518C667.266 698.172 669.792 679.818 674.904 663.444C679.98 647.076 686.688 631.812 695.07 617.64C703.416 603.438 713.07 590.196 723.972 577.806C734.874 565.446 746.166 553.446 757.776 541.836C774.498 525.114 789.768 508.566 803.616 492.198C817.392 475.83 824.316 457.116 824.316 436.026C824.316 418.554 817.602 403.68 804.15 391.284C790.692 378.93 770.88 372.75 744.708 372.75" fill="#FBC343"/>
<path d="M856.158 928.2C856.158 954.468 847.656 974.736 830.652 989.034C813.642 1003.36 794.424 1010.5 772.962 1010.5C751.47 1010.5 732.252 1003.36 715.248 989.034C698.268 974.736 689.766 954.468 689.766 928.2C689.766 901.968 698.268 881.7 715.248 867.372C741.426 845.28 780.15 840.354 810.804 855.858C837.996 869.622 856.158 897.558 856.158 928.2Z" fill="#E49B31"/>
<path d="M827.658 928.2C827.658 954.468 819.156 974.736 802.152 989.034C785.142 1003.36 765.924 1010.5 744.462 1010.5C722.97 1010.5 703.752 1003.36 686.748 989.034C669.768 974.736 661.266 954.468 661.266 928.2C661.266 901.968 669.768 881.7 686.748 867.372C703.752 853.074 722.97 845.91 744.462 845.91C765.924 845.91 785.142 853.074 802.152 867.372C819.156 881.7 827.658 901.968 827.658 928.2Z" fill="#FBC343"/>
<path d="M393.878 544.08C398.771 551.232 396.941 560.994 389.79 565.89C382.639 570.78 372.875 568.95 367.981 561.798C363.088 554.646 364.918 544.884 372.069 539.988C379.22 535.098 388.984 536.928 393.878 544.08" fill="#D3DFFF"/>
<path d="M403.846 585.3C402.947 590.088 398.309 593.244 393.484 592.338C388.66 591.432 385.477 586.818 386.375 582.024C387.272 577.236 391.912 574.086 396.736 574.992C401.56 575.892 404.743 580.512 403.846 585.3" fill="#D3DFFF"/>
<path d="M402.932 485.322C396.646 518.856 364.365 540.942 330.831 534.66C297.297 528.372 275.207 496.092 281.493 462.558C287.778 429.024 320.058 406.932 353.593 413.22C387.127 419.508 409.217 451.788 402.932 485.322" fill="#D3DFFF"/>
<path d="M326.275 473.94C326.275 478.236 322.79 481.722 318.492 481.722C314.193 481.722 310.708 478.236 310.708 473.94C310.708 469.638 314.193 466.158 318.492 466.158C322.79 466.158 326.275 469.638 326.275 473.94Z" fill="white"/>
<path d="M349.996 473.94C349.996 478.236 346.511 481.722 342.213 481.722C337.914 481.722 334.429 478.236 334.429 473.94C334.429 469.638 337.914 466.158 342.213 466.158C346.511 466.158 349.996 469.638 349.996 473.94Z" fill="white"/>
<path d="M373.717 473.94C373.717 478.236 370.232 481.722 365.933 481.722C361.635 481.722 358.15 478.236 358.15 473.94C358.15 469.638 361.635 466.158 365.933 466.158C370.232 466.158 373.717 469.638 373.717 473.94Z" fill="white"/>
<path d="M297.957 979.572L303.729 1001.83C305.235 1007.63 310.846 1011.55 317.053 1011.13C335.979 1009.84 375.302 1005.2 397.871 988.572L391.455 956.502C360.424 954.744 331.404 956.472 306.276 964.932C299.984 967.05 296.345 973.356 297.957 979.572Z" fill="#102048"/>
<path d="M334.125 997.284C333.797 997.284 333.495 997.068 333.402 996.738L325.652 968.988C325.541 968.586 325.775 968.172 326.173 968.064C326.575 967.95 326.987 968.184 327.098 968.586L334.847 996.336C334.959 996.732 334.725 997.146 334.326 997.26C334.259 997.278 334.191 997.284 334.125 997.284Z" fill="white"/>
<path d="M350.874 993.534C350.546 993.534 350.245 993.318 350.152 992.988L342.402 965.238C342.291 964.836 342.524 964.422 342.923 964.314C343.325 964.2 343.736 964.434 343.847 964.836L351.597 992.586C351.708 992.982 351.475 993.396 351.077 993.51C351.009 993.528 350.941 993.534 350.874 993.534Z" fill="white"/>
<path d="M370.328 859.284L298.206 880.692L351.767 954.078L428.662 960.192L534.724 915.348L494.42 854.7L370.328 859.284Z" fill="#FBC343"/>
<path d="M459.243 869.478C617.628 822.594 643.086 962.574 395.959 988.056C387.231 978.234 377.03 961.188 372.979 946.944L503.482 886.638L459.243 869.478" fill="#FBC343"/>
<path d="M465.971 969.798C458.563 967.428 451.465 962.742 451.465 962.742L426.011 970.728L431.844 998.418L458.287 1003.79C466.342 989.058 466.813 976.956 465.971 969.798" fill="#F9B384"/>
<path d="M373.545 947.916L372.415 945.972C399.64 930.15 469.376 892.134 528.791 880.926L529.208 883.14C470.136 894.282 400.67 932.154 373.545 947.916Z" fill="#E49B31"/>
<path d="M370.328 859.284C222.902 831.258 184.72 972.936 431.844 998.418C440.573 988.596 447.415 976.986 451.465 962.742C413.505 937.344 371.062 913.2 324.545 890.202L370.328 859.284" fill="#FBC343"/>
<path d="M450.861 963.69C443.848 959.226 436.541 954.51 428.804 949.512C389.968 924.438 345.95 896.022 308.552 879.816L309.447 877.752C347.015 894.03 391.116 922.5 430.025 947.622C437.758 952.62 445.062 957.336 452.069 961.794L450.861 963.69" fill="#E49B31"/>
<path d="M262.163 929.532L260.193 928.446C265.727 918.426 274.59 911.67 286.538 908.364L287.138 910.53C275.636 913.716 267.467 919.932 262.163 929.532Z" fill="#E49B31"/>
<path d="M569.862 921.006C564.558 911.406 556.388 905.19 544.886 901.998L545.487 899.832C557.435 903.144 566.298 909.9 571.832 919.92L569.862 921.006" fill="#E49B31"/>
<path d="M418.039 997.176L416.394 995.64C428.188 983.01 435.43 969.672 438.538 954.876L440.739 955.338C437.546 970.548 430.12 984.234 418.039 997.176" fill="#E49B31"/>
<path d="M539.497 961.554C520.608 949.884 483.99 970.05 474.799 971.064C472.119 971.364 469.019 970.776 465.971 969.798C466.813 976.956 466.342 989.058 458.287 1003.79L462.778 1004.7C462.778 1004.7 493.83 1016.09 526.769 1009.46C557.174 1003.34 554.345 970.728 539.497 961.554Z" fill="#102048"/>
<path d="M513.75 999.726C513.675 999.726 513.6 999.714 513.525 999.69C513.129 999.564 512.91 999.144 513.035 998.748C515.279 991.644 516.258 977.664 509.758 968.274C509.523 967.932 509.608 967.47 509.949 967.23C510.288 966.996 510.756 967.08 510.992 967.422C517.798 977.25 516.798 991.812 514.465 999.198C514.364 999.516 514.069 999.726 513.75 999.726" fill="white"/>
<path d="M498.938 1002.53C498.863 1002.53 498.787 1002.52 498.712 1002.5C498.317 1002.38 498.098 1001.95 498.223 1001.56C500.466 994.452 501.445 980.478 494.946 971.088C494.71 970.746 494.795 970.278 495.136 970.044C495.475 969.81 495.943 969.894 496.179 970.236C502.985 980.064 501.986 994.626 499.652 1002.01C499.552 1002.33 499.256 1002.53 498.938 1002.53" fill="white"/>
<path d="M344.247 676.608C344.247 676.608 381.375 645.036 380 639.036C379.018 634.746 368.5 641.034 368.5 641.034C368.5 641.034 383.25 623.538 382.5 621.408C381.16 617.616 370.959 624.69 370.959 624.69C370.959 624.69 377.854 614.766 374.557 613.152C371.261 611.532 364.074 617.652 364.074 617.652C364.074 617.652 368.273 612.138 366.3 610.692C364.327 609.246 355.817 615.192 355.817 615.192C355.817 615.192 358.871 608.244 352.383 610.878C345.895 613.512 300.403 655.26 300.403 655.26L344.247 676.608" fill="#F9B384"/>
<path d="M359.437 639.162C359.257 639.162 359.075 639.096 358.931 638.964C352.559 633.144 349.748 631.728 342.717 629.562C342.321 629.442 342.099 629.022 342.221 628.626C342.343 628.23 342.762 628.008 343.158 628.134C350.443 630.372 353.353 631.836 359.944 637.854C360.25 638.136 360.271 638.61 359.991 638.916C359.843 639.078 359.641 639.162 359.437 639.162Z" fill="#E28B6D"/>
<path d="M348.251 656.286L348.146 656.28C347.736 656.22 347.45 655.842 347.507 655.434C348.237 650.214 349.88 646.95 352.532 645.456C354.798 644.184 357.747 644.316 361.297 645.846C361.678 646.014 361.853 646.452 361.688 646.83C361.525 647.214 361.083 647.388 360.703 647.226C357.606 645.888 355.105 645.732 353.267 646.764C351.082 647.994 349.644 650.982 348.992 655.638C348.94 656.016 348.619 656.286 348.251 656.286" fill="#E28B6D"/>
<path d="M346.5 624.726C346.301 624.726 346.102 624.642 345.954 624.486C345.67 624.186 345.684 623.712 345.986 623.43L355.302 614.646C355.604 614.364 356.078 614.376 356.363 614.676C356.647 614.982 356.633 615.456 356.331 615.738L347.014 624.516C346.87 624.654 346.685 624.726 346.5 624.726" fill="#E28B6D"/>
<path d="M355.125 627.726C354.938 627.726 354.751 627.654 354.606 627.516C354.307 627.228 354.297 626.754 354.584 626.454L363.533 617.13C363.82 616.83 364.294 616.818 364.594 617.106C364.893 617.394 364.902 617.868 364.615 618.168L355.666 627.492C355.519 627.648 355.322 627.726 355.125 627.726Z" fill="#E28B6D"/>
<path d="M363.937 632.976C363.754 632.976 363.571 632.904 363.426 632.772C363.123 632.49 363.106 632.016 363.389 631.71L370.41 624.18C370.693 623.88 371.167 623.862 371.47 624.144C371.773 624.426 371.79 624.9 371.508 625.2L364.486 632.736C364.338 632.892 364.138 632.976 363.937 632.976Z" fill="#E28B6D"/>
<path d="M484.5 887.784L348.75 893.034L333.75 769.284C333.75 769.284 379.196 726.174 396.68 710.304L426.197 708.792C517.776 750.414 502.78 802.404 484.5 887.784Z" fill="#3A6BEA"/>
<path d="M426.197 708.792C426.197 708.792 530.97 717.75 564 789.534C596.32 859.77 463.5 884.784 463.5 884.784L426.197 708.792Z" fill="#3A6BEA"/>
<path d="M306.435 724.17L349.731 671.484L309.244 646.944C292.355 658.692 259.696 685.29 232.019 715.41C225.909 722.058 221.138 729.822 218.734 738.372C216.684 745.668 216.311 752.874 217.464 759.93C220.468 778.326 234.936 792.522 254.25 794.784C270.745 796.716 333.75 791.784 384.75 776.784L399.75 718.89C392.041 714.516 334.755 713.754 306.435 724.17" fill="#3A6BEA"/>
<path d="M483.999 742.26C477.115 742.26 467.133 740.718 463.491 732.414C461.086 726.936 462.781 720.906 465.422 716.604C465.796 716.712 466.168 716.82 466.545 716.928C463.966 720.984 462.241 726.768 464.521 731.964C467.911 739.692 477.371 741.138 483.967 741.138C486.289 741.138 488.256 740.958 489.478 740.808C497.287 739.866 505.209 738.06 512.887 736.29C513.361 736.566 513.838 736.842 514.311 737.118C514.085 737.172 513.858 737.226 513.633 737.274C505.774 739.086 497.647 740.958 489.612 741.924C488.362 742.074 486.364 742.26 483.999 742.26Z" fill="#D8E1FB"/>
<path d="M536.481 857.478C531.173 850.758 528.389 843.12 528.727 835.836C529.221 825.144 537.381 815.718 546.916 814.812C547.504 814.758 548.088 814.734 548.67 814.734C553.468 814.734 558.064 816.51 562.529 818.232C564.313 818.922 566.127 819.618 567.962 820.212C567.875 820.578 567.78 820.938 567.683 821.304C565.8 820.698 563.947 819.99 562.123 819.282C557.567 817.524 553.237 815.856 548.688 815.856C548.136 815.856 547.581 815.88 547.022 815.934C538.023 816.786 530.32 825.732 529.85 835.884C529.524 842.934 532.247 850.35 537.436 856.872C537.119 857.076 536.8 857.28 536.481 857.478" fill="#D8E1FB"/>
<path d="M246.978 793.302C246.587 793.188 246.21 793.044 245.824 792.918C251.695 786.168 260.239 781.068 270.199 778.488C273.978 777.51 277.64 777.03 281.087 777.03C287.833 777.03 293.75 778.878 298.079 782.454C301.303 785.124 303.535 788.586 305.136 792.294C304.747 792.336 304.359 792.384 303.973 792.426C302.444 788.976 300.34 785.784 297.364 783.324C293.236 779.91 287.573 778.152 281.092 778.152C277.741 778.152 274.169 778.626 270.481 779.58C260.916 782.052 252.689 786.894 246.978 793.302" fill="#D8E1FB"/>
<path d="M238.946 708.048C239.434 707.544 239.923 707.034 240.412 706.53C251.974 703.536 263.228 699.39 273.634 693.396C277.7 691.056 282.288 688.074 285.475 683.748C288.78 679.26 289.889 673.944 288.441 669.54C287.872 667.806 286.858 666.288 285.592 665.082C285.881 664.848 286.171 664.608 286.458 664.374C287.813 665.688 288.898 667.32 289.51 669.186C291.071 673.938 289.901 679.632 286.38 684.42C283.07 688.914 278.363 691.974 274.195 694.374C263.163 700.728 251.203 705.006 238.946 708.048" fill="#D8E1FB"/>
<path d="M435.786 681.276L435.767 683.196L435.463 713.034L435.425 716.268C435.368 721.326 433.295 725.91 429.948 729.24C426.62 732.546 422.036 734.622 416.959 734.658C406.727 734.712 398.36 726.498 398.265 716.25L397.904 679.374L435.786 681.276Z" fill="#F9B384"/>
<path d="M435.767 683.196L435.462 713.034C418.88 706.284 412.052 688.332 412.052 688.332L435.767 683.196Z" fill="#102048"/>
<path d="M442.328 631.128C448.271 638.262 465.624 678.672 448.033 692.46C428.238 707.976 398.113 682.476 398.113 682.476L394.072 635.406L420.22 628.512L442.328 631.128" fill="#F9B384"/>
<path d="M380.75 628.536C380.75 628.536 322.75 658.788 370.042 745.986C376.115 757.182 389.57 762.072 401.078 756.606H401.079C413.425 750.744 418.1 735.66 411.395 723.75C403.66 710.01 396.193 692.316 399.38 679.146L380.75 628.536" fill="#102048"/>
<path d="M401.916 642.852C401.916 651.522 394.892 658.542 386.227 658.542C377.562 658.542 370.538 651.522 370.538 642.852C370.538 634.188 377.562 627.168 386.227 627.168C394.892 627.168 401.916 634.188 401.916 642.852Z" fill="#FBC343"/>
<path d="M405.528 661.704C403.833 651.918 402.8 645.204 412.693 640.158C412.693 640.158 447.558 646.5 454.214 633.348C460.87 620.19 450.727 599.43 429.492 613.854C375.134 603.234 367.844 654.108 384.325 671.064L400.593 668.568C403.866 668.064 406.093 664.968 405.528 661.704Z" fill="#102048"/>
<path d="M434.84 661.734C434.84 663.012 433.802 664.05 432.522 664.05C431.242 664.05 430.204 663.012 430.204 661.734C430.204 660.456 431.242 659.418 432.522 659.418C433.802 659.418 434.84 660.456 434.84 661.734Z" fill="#102048"/>
<path d="M450.529 654.006C450.529 655.29 449.491 656.328 448.211 656.328C446.932 656.328 445.894 655.29 445.894 654.006C445.894 652.728 446.932 651.69 448.211 651.69C449.491 651.69 450.529 652.728 450.529 654.006Z" fill="#102048"/>
<path d="M446.607 668.868C446.444 668.868 446.282 668.808 446.154 668.688C445.892 668.436 445.881 668.022 446.131 667.758C447.06 666.78 448.079 665.406 447.651 664.41C447.206 663.372 445.328 662.928 444.467 662.928C442.618 662.928 441.73 659.634 441.571 658.974C441.486 658.626 441.702 658.272 442.055 658.182C442.406 658.098 442.761 658.314 442.847 658.668C443.184 660.06 443.949 661.614 444.467 661.614C445.352 661.614 448.059 662.028 448.857 663.888C449.427 665.22 448.83 666.822 447.083 668.664C446.954 668.802 446.78 668.868 446.607 668.868" fill="#102048"/>
<path d="M446.725 677.664C446.599 677.664 446.471 677.628 446.358 677.55C441.995 674.604 437.588 677.076 437.544 677.1C437.231 677.28 436.829 677.172 436.648 676.86C436.467 676.542 436.575 676.146 436.889 675.96C437.099 675.84 442.057 673.062 447.093 676.464C447.393 676.668 447.473 677.076 447.27 677.376C447.143 677.562 446.936 677.664 446.725 677.664" fill="#102048"/>
<path d="M431.507 651.696C432.826 654.174 430.528 654.678 427.836 656.106C425.144 657.534 422.387 658.062 421.759 656.874C421.129 655.692 422.801 653.574 425.494 652.14C428.186 650.712 430.486 649.776 431.507 651.696Z" fill="#102048"/>
<path d="M441.325 647.214C441.904 649.428 443.557 648.462 445.96 647.832C448.363 647.202 450.303 645.996 450.027 644.94C449.751 643.884 447.579 643.536 445.176 644.166C442.773 644.796 440.877 645.498 441.325 647.214" fill="#102048"/>
<path d="M421.825 679.386C418.05 679.386 414.991 676.326 414.991 672.552C414.991 668.772 418.05 665.718 421.825 665.718C425.6 665.718 428.659 668.772 428.659 672.552C428.659 676.326 425.6 679.386 421.825 679.386Z" fill="#F39176"/>
<path d="M401.526 665.25C406.125 668.796 407.321 674.952 404.198 679.002C401.075 683.046 394.815 683.448 390.216 679.902C385.617 676.356 384.421 670.194 387.544 666.15C390.667 662.1 396.927 661.698 401.526 665.25Z" fill="#F9B384"/>
<path d="M399.938 676.002C399.575 676.002 399.281 675.708 399.281 675.348C399.281 673.41 398.337 671.622 396.755 670.554C395.402 669.648 393.789 669.432 392.442 669.984C392.106 670.116 391.724 669.96 391.587 669.624C391.45 669.288 391.611 668.904 391.946 668.766C393.699 668.052 395.771 668.316 397.487 669.468C399.432 670.776 400.593 672.972 400.593 675.348C400.593 675.708 400.3 676.002 399.938 676.002" fill="#102048"/>
<path d="M283.301 750.294L282.199 749.274L305.885 723.66L306.986 724.68L283.301 750.294Z" fill="#102048"/>
<path d="M472.719 833.754L472.282 832.32C489.522 827.064 506.252 820.776 521.415 801.816L522.586 802.752C507.156 822.048 490.193 828.426 472.719 833.754Z" fill="#102048"/>
<path d="M483.2 775.668H336.55C331.275 775.668 327 780.294 327 785.994V890.7C327 896.406 331.275 901.032 336.55 901.032H483.2C488.475 901.032 492.75 896.406 492.75 890.7V785.994C492.75 780.294 488.475 775.668 483.2 775.668" fill="#D3DFFF"/>
<path d="M417.617 828.732H402.133C399.923 828.732 398.125 830.568 398.125 832.824V843.876C398.125 846.132 399.923 847.968 402.133 847.968H417.617C419.826 847.968 421.625 846.132 421.625 843.876V832.824C421.625 830.568 419.826 828.732 417.617 828.732ZM417.617 831.732C418.173 831.732 418.625 832.218 418.625 832.824V843.876C418.625 844.476 418.173 844.968 417.617 844.968H402.133C401.576 844.968 401.125 844.476 401.125 843.876V832.824C401.125 832.218 401.576 831.732 402.133 831.732H417.617Z" fill="#1F3C88"/>
<path d="M1052.36 1012.28H168.157V1009.28H1052.36V1012.28Z" fill="#102048"/>
</svg>
