<svg width="500" height="447" viewBox="0 0 500 447" fill="none" xmlns="http://www.w3.org/2000/svg">
<path d="M485.524 323.003C477.347 304.403 461.642 288.881 442.778 281.243C423.13 273.287 400.567 276.181 379.87 273.518C361.895 271.2 348.927 263.176 338.192 248.909C327.908 235.239 318.69 220.1 301.875 213.776C288.588 208.781 273.483 210.166 260.278 215.374C235.946 224.965 217.568 245.363 202.09 265.687C187.959 284.243 176.433 304.559 150.294 305.221C138.465 305.523 126.893 302.635 115.329 299.748C101.323 296.25 87.3288 292.752 72.9046 294.92C38.0986 300.145 9.11264 329.12 3.03881 363.612C-2.65389 395.94 11.6307 427.297 36.1715 445.718H457.981C488.905 412.914 505.135 367.599 485.524 323.003Z" fill="#F7F0E3"/>
<path d="M104.215 445.718H105.375C113.433 436.861 119.745 426.113 123.759 414.183C130.253 394.874 129.98 374.609 122.987 357.122C119.454 348.287 114.351 340.049 109.417 332.082C104.412 324.007 99.2372 315.654 95.725 306.7C94.2728 303.002 93.2007 299.025 92.5549 294.971C92.2643 294.933 91.973 294.903 91.6824 294.869C92.331 299.066 93.4337 303.181 94.9361 307.012C98.4755 316.034 103.671 324.421 108.696 332.53C113.611 340.466 118.694 348.67 122.2 357.437C129.117 374.737 129.385 394.796 122.955 413.915C118.892 425.99 112.447 436.841 104.215 445.718Z" fill="white"/>
<path d="M455.942 408.931C464.635 410.784 473.01 412.446 481.113 413.491C481.249 413.223 481.384 412.952 481.52 412.684C473.354 411.645 464.899 409.973 456.122 408.103C442.754 405.253 428.283 402.172 413.935 402.172C405.049 402.172 396.21 403.353 387.708 406.505C384.485 407.699 381.38 409.213 378.425 411.018C370.747 407.744 363.028 404.171 355.384 400.252C360.931 396.072 366.536 391.977 372.206 388.021C414.267 358.648 453.089 341.996 490.596 337.27C490.517 336.995 490.443 336.72 490.364 336.445C452.756 341.209 413.853 357.905 371.717 387.325C365.932 391.366 360.208 395.549 354.546 399.818C345.945 395.376 337.452 390.494 329.228 385.106C314.316 375.335 296.575 361.386 281.083 342.855C341.12 336.116 402.243 327.631 452.159 294.272C454.052 293.003 456.153 291.51 458.327 289.817C458.086 289.644 457.846 289.478 457.601 289.308C455.518 290.923 453.506 292.348 451.687 293.566C401.785 326.918 340.547 335.339 280.435 342.074C269.486 328.832 259.704 313.275 252.905 295.269C242.318 267.22 242.877 239.697 254.442 219.754C254.944 218.889 255.473 218.034 256.02 217.189C255.538 217.413 255.06 217.643 254.581 217.871C254.283 218.353 253.991 218.838 253.706 219.326C242.016 239.494 241.434 267.281 252.111 295.571C258.873 313.479 268.567 328.971 279.427 342.183C275.946 342.573 272.465 342.96 268.998 343.34C256.478 344.721 243.533 346.152 230.964 347.771C226.376 348.361 221.71 349.05 217.068 349.912C207.116 328.906 196.183 308.417 182.052 290.842C181.85 291.045 181.644 291.239 181.44 291.439C195.45 308.878 206.315 329.219 216.206 350.075C195.957 353.936 176.295 361.197 165.797 378.093C155.992 393.873 156.001 415.686 165.823 442.924C166.163 443.869 166.513 444.796 166.867 445.718H167.776C167.387 444.711 167.001 443.693 166.621 442.636C156.891 415.656 156.856 394.091 166.517 378.541C176.891 361.845 196.445 354.682 216.581 350.865C220.095 358.299 223.489 365.79 226.862 373.238L227.229 374.049C238.943 399.909 251.059 424.864 266.924 445.718H267.983C251.972 424.827 239.789 399.719 228.002 373.699L227.635 372.888C224.29 365.505 220.924 358.075 217.443 350.706C221.996 349.864 226.572 349.189 231.072 348.612C243.634 346.994 256.573 345.565 269.089 344.185C272.743 343.781 276.408 343.377 280.072 342.967C295.713 361.79 313.678 375.932 328.763 385.815C336.896 391.146 345.297 395.98 353.796 400.388C339.366 411.299 325.33 422.781 311.629 433.994C306.882 437.876 302.082 441.799 297.243 445.718H298.59C303.154 442.014 307.683 438.313 312.165 434.649C325.964 423.361 340.099 411.795 354.631 400.819C362.234 404.731 369.909 408.297 377.546 411.564C367.099 418.207 358.583 428.498 353.436 440.99C352.792 442.557 352.228 444.134 351.706 445.718H352.602C353.094 444.242 353.619 442.772 354.22 441.313C359.384 428.786 367.968 418.506 378.496 411.968C399.844 421.037 420.822 427.768 438.852 433.102L439.531 433.302C447.127 435.552 454.897 437.852 461.771 441.55C461.961 441.33 462.155 441.115 462.345 440.894C455.362 437.102 447.477 434.768 439.768 432.491L439.09 432.291C421.246 427.008 400.509 420.358 379.388 411.425C382.14 409.789 385.021 408.405 388.003 407.299C410.009 399.146 434.414 404.344 455.942 408.931Z" fill="white"/>
<path d="M38.2971 353.99C42.044 369.323 40.3724 385.883 33.7111 399.428C29.3484 408.297 23.0478 416.324 15.2871 423.222C15.4415 423.463 15.5993 423.7 15.7559 423.938C23.6427 416.952 30.0439 408.806 34.4728 399.801C41.2201 386.083 42.9148 369.312 39.121 353.786C36.1579 341.657 30.2 331.383 21.9683 323.949C21.7845 324.163 21.6024 324.38 21.4209 324.598C29.5157 331.919 35.3775 342.037 38.2971 353.99Z" fill="white"/>
<path d="M230.274 159.727C237.664 167.276 240.976 179.996 236.901 191.725C232.956 203.081 224.308 212.486 213.918 218.536C205.559 223.401 194.654 226.085 186.432 220.989C180.288 217.182 177.102 209.711 176.925 202.487C176.748 195.261 179.178 188.217 182.181 181.645C186.415 172.376 192.113 163.391 200.601 157.756C212.301 149.986 223.171 152.466 230.274 159.727Z" fill="#F7F0E3"/>
<path d="M72.41 26.0641H131.053V1.27233H72.41V26.0641ZM132.325 27.3365H71.1377V0H132.325V27.3365Z" fill="#E9DDCA"/>
<path d="M32.6039 52.203H91.2465V27.4145H32.6039V52.203ZM92.5188 53.4753H31.3315V26.1422H92.5188V53.4753Z" fill="#E9DDCA"/>
<path d="M480.468 82.6032C476.504 69.4287 469.537 57.333 459.562 46.2756C449.567 35.2182 435.934 26.0879 418.664 18.8679C401.395 11.6478 379.453 8.03778 352.836 8.03778C331.606 8.03778 309.97 10.9014 287.926 16.6286C265.859 22.3761 246.723 30.5496 230.489 41.1727L251.619 99.1809L240.294 108.355L256.719 113.183C272.93 104.698 287.702 98.5362 301.03 94.6989C314.337 90.8819 328.478 88.9717 343.471 88.9717C358.444 88.9717 369.78 92.5817 377.482 99.8018C385.18 107.042 389.021 115.735 389.021 125.944C389.021 138.267 385.061 149.199 377.176 158.763C369.254 168.328 360.517 177.994 350.949 187.769C344.303 194.552 337.843 201.565 331.606 208.785C325.37 216.025 319.843 223.764 315.069 232.063C310.272 240.339 306.435 249.262 303.527 258.826C300.602 268.391 299.16 279.116 299.16 291.004C299.16 294.842 299.242 299.405 299.466 304.719C299.503 305.696 299.554 306.652 299.611 307.596H284.086L301.03 319.053H383.412C382.988 316.502 382.785 313.533 382.785 310.134C382.785 306.731 382.785 304.179 382.785 302.476C382.785 295.256 384.247 288.141 387.151 281.128C390.059 274.115 393.713 267.434 398.083 261.045C402.45 254.677 407.325 248.617 412.751 242.893C418.156 237.146 423.357 231.731 428.355 226.628C434.998 219.842 441.865 212.622 448.936 204.968C456.007 197.31 462.263 189.262 467.668 180.756C473.072 172.25 477.539 163.018 481.079 153.016C484.613 143.037 486.4 132.105 486.4 120.196C486.4 108.308 484.41 95.7778 480.468 82.6032Z" fill="#E49B31"/>
<path d="M326.029 84.9239C311.212 84.9239 297.237 86.773 284.086 90.4679C270.915 94.1797 256.315 100.144 240.294 108.355L214.373 38.6653C230.415 28.3848 249.329 20.4726 271.135 14.9117C292.921 9.36771 314.303 6.59912 335.285 6.59912C361.59 6.59912 383.273 10.0938 400.34 17.0797C417.406 24.0657 430.879 32.9008 440.759 43.6019C450.616 54.3065 457.503 66.0119 461.418 78.759C465.313 91.5095 467.281 103.639 467.281 115.144C467.281 126.667 465.514 137.249 462.022 146.909C458.528 156.585 454.11 165.519 448.77 173.753C443.429 181.984 437.244 189.774 430.258 197.184C423.269 204.594 416.483 211.58 409.918 218.146C404.978 223.086 399.838 228.324 394.497 233.889C389.136 239.429 384.319 245.292 379.999 251.457C375.684 257.639 372.07 264.106 369.2 270.891C366.326 277.677 364.881 284.565 364.881 291.551C364.881 293.2 364.881 295.67 364.881 298.961C364.881 302.255 365.081 305.126 365.505 307.596H284.086C283.241 303.48 282.739 298.862 282.539 293.722C282.318 288.582 282.237 284.164 282.237 280.449C282.237 268.944 283.665 258.565 286.556 249.306C289.426 240.05 293.22 231.419 297.959 223.405C302.679 215.374 308.138 207.886 314.303 200.879C320.468 193.89 326.853 187.104 333.418 180.539C342.874 171.083 351.509 161.725 359.34 152.469C367.13 143.214 371.046 132.631 371.046 120.705C371.046 110.825 367.249 102.414 359.642 95.4045C352.032 88.4186 340.828 84.9239 326.029 84.9239Z" fill="#FBC343"/>
<path d="M389.051 399.02C389.051 413.874 384.244 425.336 374.628 433.421C365.009 441.522 354.142 445.56 342.006 445.56C329.852 445.56 318.985 441.522 309.37 433.421C299.768 425.336 294.96 413.874 294.96 399.02C294.96 384.187 299.768 372.726 309.37 364.623C324.173 352.131 346.07 349.345 363.405 358.112C378.781 365.896 389.051 381.693 389.051 399.02Z" fill="#E49B31"/>
<path d="M372.936 399.02C372.936 413.874 368.128 425.336 358.512 433.421C348.894 441.522 338.026 445.559 325.89 445.559C313.736 445.559 302.869 441.522 293.254 433.421C283.652 425.336 278.844 413.874 278.844 399.02C278.844 384.187 283.652 372.725 293.254 364.623C302.869 356.538 313.736 352.487 325.89 352.487C338.026 352.487 348.894 356.538 358.512 364.623C368.128 372.725 372.936 384.187 372.936 399.02Z" fill="#FBC343"/>
<path d="M127.641 181.808C130.408 185.852 129.373 191.372 125.329 194.141C121.285 196.906 115.764 195.871 112.996 191.827C110.23 187.783 111.264 182.262 115.308 179.494C119.352 176.729 124.873 177.763 127.641 181.808Z" fill="#D3DFFF"/>
<path d="M133.278 205.117C132.769 207.824 130.147 209.609 127.418 209.097C124.69 208.584 122.89 205.975 123.398 203.264C123.905 200.557 126.529 198.776 129.257 199.288C131.985 199.797 133.785 202.409 133.278 205.117Z" fill="#D3DFFF"/>
<path d="M132.761 148.581C129.206 167.544 110.952 180.033 91.9891 176.481C73.0262 172.925 60.5348 154.672 64.0894 135.709C67.6434 116.746 85.8971 104.253 104.861 107.809C123.823 111.365 136.315 129.619 132.761 148.581Z" fill="#D3DFFF"/>
<path d="M89.4127 142.145C89.4127 144.574 87.442 146.546 85.0116 146.546C82.5806 146.546 80.6099 144.574 80.6099 142.145C80.6099 139.712 82.5806 137.744 85.0116 137.744C87.442 137.744 89.4127 139.712 89.4127 142.145Z" fill="white"/>
<path d="M102.827 142.145C102.827 144.574 100.856 146.546 98.4254 146.546C95.9944 146.546 94.0237 144.574 94.0237 142.145C94.0237 139.712 95.9944 137.744 98.4254 137.744C100.856 137.744 102.827 139.712 102.827 142.145Z" fill="white"/>
<path d="M116.24 142.145C116.24 144.574 114.27 146.546 111.839 146.546C109.408 146.546 107.438 144.574 107.438 142.145C107.438 139.712 109.408 137.744 111.839 137.744C114.27 137.744 116.24 139.712 116.24 142.145Z" fill="white"/>
<path d="M73.3994 428.07L76.6633 440.657C77.5149 443.937 80.6878 446.153 84.1978 445.916C94.9001 445.186 117.136 442.562 129.899 433.16L126.271 415.025C108.723 414.031 92.313 415.008 78.1036 419.792C74.5456 420.989 72.4878 424.555 73.3994 428.07Z" fill="#102048"/>
<path d="M93.8518 438.086C93.6664 438.086 93.4956 437.964 93.443 437.777L89.0605 422.085C88.9978 421.858 89.1301 421.624 89.3551 421.563C89.5825 421.498 89.8154 421.631 89.8782 421.858L94.2601 437.55C94.3234 437.774 94.1911 438.008 93.9655 438.073C93.9276 438.083 93.8892 438.086 93.8518 438.086Z" fill="white"/>
<path d="M103.323 435.966C103.138 435.966 102.967 435.843 102.915 435.657L98.5322 419.965C98.4695 419.737 98.6012 419.503 98.8269 419.442C99.0542 419.378 99.2866 419.51 99.3494 419.737L103.732 435.429C103.795 435.653 103.663 435.888 103.438 435.952C103.399 435.962 103.361 435.966 103.323 435.966Z" fill="white"/>
<path d="M114.324 360.05L73.54 372.156L103.828 413.654L147.31 417.111L207.286 391.753L184.495 357.458L114.324 360.05Z" fill="#FBC343"/>
<path d="M164.604 365.814C254.167 339.302 268.563 418.458 128.818 432.868C123.882 427.314 118.114 417.674 115.823 409.62L189.62 375.518L164.604 365.814Z" fill="#FBC343"/>
<path d="M168.408 422.543C164.219 421.203 160.205 418.553 160.205 418.553L145.812 423.069L149.11 438.727L164.063 441.765C168.618 433.434 168.884 426.591 168.408 422.543Z" fill="#F9B384"/>
<path d="M116.143 410.169L115.504 409.07C130.899 400.123 170.334 378.626 203.932 372.288L204.167 373.54C170.763 379.84 131.482 401.256 116.143 410.169Z" fill="#E49B31"/>
<path d="M114.324 360.05C30.9573 344.202 9.36612 424.318 149.11 438.727C154.046 433.173 157.915 426.608 160.205 418.553C138.74 404.191 114.739 390.538 88.4345 377.533L114.324 360.05Z" fill="#FBC343"/>
<path d="M159.864 419.089C155.898 416.565 151.766 413.898 147.391 411.072C125.43 396.893 100.538 380.824 79.3906 371.66L79.8967 370.493C101.141 379.698 126.079 395.797 148.081 410.003C152.454 412.829 156.584 415.496 160.547 418.017L159.864 419.089Z" fill="#E49B31"/>
<path d="M53.1587 399.774L52.0447 399.16C55.174 393.493 60.1859 389.673 66.9423 387.804L67.2816 389.028C60.7774 390.83 56.158 394.345 53.1587 399.774Z" fill="#E49B31"/>
<path d="M227.157 394.952C224.157 389.524 219.537 386.009 213.033 384.204L213.373 382.979C220.129 384.852 225.141 388.672 228.271 394.338L227.157 394.952Z" fill="#E49B31"/>
<path d="M141.304 438.025L140.373 437.156C147.043 430.014 151.138 422.472 152.895 414.105L154.14 414.366C152.334 422.967 148.135 430.707 141.304 438.025Z" fill="#E49B31"/>
<path d="M209.985 417.881C199.304 411.282 178.597 422.686 173.4 423.259C171.884 423.429 170.131 423.096 168.408 422.543C168.884 426.591 168.618 433.434 164.063 441.765L166.602 442.28C166.602 442.28 184.162 448.72 202.788 444.971C219.981 441.511 218.382 423.069 209.985 417.881Z" fill="#102048"/>
<path d="M195.426 439.467C195.384 439.467 195.341 439.46 195.299 439.447C195.075 439.375 194.951 439.138 195.022 438.914C196.291 434.897 196.844 426.991 193.169 421.681C193.036 421.488 193.084 421.227 193.277 421.091C193.468 420.959 193.733 421.006 193.866 421.2C197.715 426.757 197.15 434.992 195.83 439.168C195.773 439.348 195.606 439.467 195.426 439.467Z" fill="white"/>
<path d="M187.05 441.053C187.008 441.053 186.965 441.047 186.922 441.036C186.699 440.968 186.575 440.725 186.646 440.504C187.914 436.485 188.468 428.583 184.793 423.273C184.659 423.079 184.707 422.815 184.9 422.682C185.092 422.55 185.357 422.598 185.49 422.791C189.339 428.349 188.774 436.583 187.454 440.759C187.397 440.94 187.23 441.053 187.05 441.053Z" fill="white"/>
<path d="M99.5757 256.75C99.5757 256.75 120.571 238.897 119.793 235.504C119.238 233.078 113.29 236.634 113.29 236.634C113.29 236.634 121.631 226.74 121.207 225.535C120.449 223.391 114.681 227.391 114.681 227.391C114.681 227.391 118.58 221.779 116.715 220.867C114.852 219.951 110.787 223.411 110.787 223.411C110.787 223.411 113.162 220.293 112.046 219.476C110.931 218.658 106.118 222.02 106.118 222.02C106.118 222.02 107.845 218.091 104.176 219.581C100.508 221.07 74.7827 244.678 74.7827 244.678L99.5757 256.75Z" fill="#F9B384"/>
<path d="M108.165 235.575C108.063 235.575 107.96 235.538 107.879 235.463C104.276 232.172 102.686 231.371 98.7103 230.146C98.4864 230.078 98.3608 229.841 98.4298 229.617C98.4988 229.393 98.7357 229.268 98.9597 229.339C103.079 230.604 104.725 231.432 108.452 234.835C108.625 234.995 108.637 235.263 108.478 235.436C108.395 235.527 108.28 235.575 108.165 235.575Z" fill="#E28B6D"/>
<path d="M101.84 245.258L101.78 245.255C101.548 245.221 101.387 245.007 101.419 244.776C101.832 241.825 102.761 239.979 104.26 239.134C105.542 238.415 107.209 238.489 109.217 239.355C109.432 239.45 109.531 239.697 109.438 239.911C109.346 240.128 109.096 240.227 108.881 240.135C107.13 239.378 105.715 239.29 104.676 239.874C103.44 240.569 102.627 242.259 102.259 244.892C102.229 245.106 102.048 245.258 101.84 245.258Z" fill="#E28B6D"/>
<path d="M100.849 227.412C100.737 227.412 100.624 227.364 100.541 227.276C100.38 227.106 100.388 226.838 100.559 226.679L105.827 221.712C105.998 221.552 106.266 221.559 106.427 221.729C106.587 221.902 106.579 222.17 106.409 222.329L101.14 227.293C101.059 227.371 100.954 227.412 100.849 227.412Z" fill="#E28B6D"/>
<path d="M105.727 229.108C105.621 229.108 105.515 229.067 105.433 228.989C105.264 228.826 105.259 228.558 105.421 228.389L110.481 223.116C110.644 222.947 110.912 222.94 111.081 223.103C111.25 223.266 111.255 223.534 111.093 223.703L106.033 228.976C105.95 229.064 105.838 229.108 105.727 229.108Z" fill="#E28B6D"/>
<path d="M110.71 232.077C110.606 232.077 110.503 232.036 110.421 231.961C110.25 231.802 110.24 231.534 110.4 231.361L114.37 227.103C114.53 226.933 114.798 226.923 114.97 227.082C115.141 227.242 115.151 227.51 114.991 227.68L111.02 231.941C110.937 232.029 110.824 232.077 110.71 232.077Z" fill="#E28B6D"/>
<path d="M178.886 376.166L102.122 379.135L93.6396 309.156C93.6396 309.156 119.338 284.779 129.225 275.804L145.917 274.949C197.703 298.486 189.223 327.885 178.886 376.166Z" fill="#3A6BEA"/>
<path d="M145.917 274.949C145.917 274.949 205.164 280.015 223.842 320.607C242.118 360.325 167.011 374.469 167.011 374.469L145.917 274.949Z" fill="#3A6BEA"/>
<path d="M78.1935 283.645L102.677 253.852L79.7819 239.975C70.2315 246.619 51.7635 261.659 36.1127 278.692C32.6576 282.451 29.9597 286.841 28.6002 291.676C27.441 295.802 27.2301 299.877 27.8821 303.867C29.5808 314.27 37.7622 322.297 48.6839 323.576C58.0115 324.669 93.6396 321.88 122.479 313.398L130.961 280.66C126.602 278.186 94.2079 277.755 78.1935 283.645Z" fill="#3A6BEA"/>
<path d="M178.603 293.875C174.71 293.875 169.065 293.003 167.006 288.307C165.646 285.209 166.604 281.8 168.098 279.367C168.309 279.428 168.52 279.489 168.733 279.55C167.274 281.844 166.299 285.114 167.588 288.053C169.505 292.423 174.855 293.24 178.585 293.24C179.898 293.24 181.01 293.139 181.701 293.054C186.117 292.521 190.597 291.5 194.938 290.499C195.206 290.655 195.476 290.811 195.744 290.967C195.616 290.998 195.487 291.028 195.36 291.055C190.916 292.08 186.32 293.139 181.777 293.685C181.07 293.77 179.94 293.875 178.603 293.875Z" fill="#D8E1FB"/>
<path d="M208.28 359.028C205.279 355.228 203.704 350.909 203.895 346.79C204.175 340.744 208.789 335.414 214.181 334.902C214.514 334.871 214.844 334.857 215.173 334.857C217.886 334.857 220.485 335.862 223.01 336.836C224.019 337.226 225.044 337.619 226.082 337.955C226.033 338.162 225.979 338.366 225.924 338.573C224.86 338.23 223.812 337.83 222.78 337.429C220.204 336.435 217.755 335.492 215.183 335.492C214.871 335.492 214.557 335.506 214.241 335.536C209.152 336.018 204.796 341.077 204.53 346.817C204.346 350.804 205.886 354.998 208.82 358.686C208.641 358.801 208.461 358.916 208.28 359.028Z" fill="#D8E1FB"/>
<path d="M44.572 322.738C44.3509 322.674 44.1377 322.592 43.9194 322.521C47.2394 318.704 52.0708 315.82 57.703 314.361C59.84 313.808 61.9108 313.537 63.86 313.537C67.6747 313.537 71.0207 314.582 73.4686 316.604C75.2918 318.114 76.5539 320.071 77.4592 322.168C77.2393 322.192 77.0199 322.219 76.8016 322.243C75.937 320.292 74.7472 318.487 73.0643 317.096C70.73 315.165 67.5277 314.171 63.8628 314.171C61.9679 314.171 59.948 314.439 57.8625 314.979C52.4537 316.377 47.8015 319.115 44.572 322.738Z" fill="#D8E1FB"/>
<path d="M40.0298 274.529C40.3057 274.244 40.5823 273.955 40.8588 273.67C47.3969 271.977 53.7608 269.633 59.6452 266.243C61.9444 264.92 64.5389 263.234 66.3411 260.787C68.21 258.25 68.8371 255.243 68.0183 252.753C67.6965 251.773 67.1231 250.914 66.4072 250.232C66.5706 250.1 66.7346 249.964 66.8969 249.832C67.6632 250.575 68.2767 251.498 68.6228 252.553C69.5055 255.24 68.8439 258.46 66.8528 261.167C64.9811 263.709 62.3194 265.439 59.9624 266.796C53.724 270.389 46.9609 272.808 40.0298 274.529Z" fill="#D8E1FB"/>
<path d="M151.339 259.39L151.328 260.475L151.156 277.348L151.135 279.177C151.103 282.037 149.93 284.629 148.038 286.512C146.156 288.382 143.564 289.556 140.693 289.576C134.907 289.607 130.175 284.962 130.122 279.167L129.917 258.314L151.339 259.39Z" fill="#F9B384"/>
<path d="M151.328 260.475L151.156 277.348C141.779 273.531 137.918 263.38 137.918 263.38L151.328 260.475Z" fill="#102048"/>
<path d="M155.039 231.032C158.399 235.066 168.212 257.917 158.265 265.714C147.071 274.488 130.036 260.068 130.036 260.068L127.751 233.451L142.537 229.553L155.039 231.032Z" fill="#F9B384"/>
<path d="M120.217 229.566C120.217 229.566 87.4192 246.673 114.162 295.982C117.596 302.313 125.205 305.078 131.712 301.987H131.713C138.694 298.672 141.338 290.143 137.546 283.408C133.172 275.638 128.95 265.632 130.752 258.185L120.217 229.566Z" fill="#102048"/>
<path d="M132.187 237.661C132.187 242.564 128.215 246.534 123.315 246.534C118.415 246.534 114.443 242.564 114.443 237.661C114.443 232.762 118.415 228.792 123.315 228.792C128.215 228.792 132.187 232.762 132.187 237.661Z" fill="#FBC343"/>
<path d="M134.229 248.322C133.27 242.788 132.686 238.992 138.28 236.138C138.28 236.138 157.996 239.724 161.76 232.287C165.524 224.847 159.788 213.107 147.78 221.264C117.041 215.258 112.919 244.027 122.239 253.615L131.438 252.203C133.289 251.918 134.548 250.168 134.229 248.322Z" fill="#102048"/>
<path d="M150.804 248.339C150.804 249.062 150.217 249.649 149.493 249.649C148.77 249.649 148.183 249.062 148.183 248.339C148.183 247.616 148.77 247.029 149.493 247.029C150.217 247.029 150.804 247.616 150.804 248.339Z" fill="#102048"/>
<path d="M159.676 243.969C159.676 244.695 159.089 245.282 158.365 245.282C157.642 245.282 157.055 244.695 157.055 243.969C157.055 243.246 157.642 242.659 158.365 242.659C159.089 242.659 159.676 243.246 159.676 243.969Z" fill="#102048"/>
<path d="M157.458 252.373C157.366 252.373 157.274 252.339 157.202 252.271C157.054 252.129 157.048 251.895 157.189 251.745C157.714 251.192 158.29 250.415 158.048 249.852C157.797 249.265 156.735 249.014 156.248 249.014C155.202 249.014 154.7 247.151 154.61 246.778C154.562 246.581 154.684 246.381 154.884 246.33C155.082 246.283 155.283 246.405 155.332 246.605C155.522 247.392 155.955 248.271 156.248 248.271C156.748 248.271 158.279 248.505 158.73 249.557C159.053 250.31 158.715 251.216 157.727 252.258C157.654 252.336 157.556 252.373 157.458 252.373Z" fill="#102048"/>
<path d="M157.525 257.347C157.454 257.347 157.381 257.327 157.318 257.283C154.85 255.617 152.358 257.015 152.333 257.028C152.156 257.13 151.929 257.069 151.827 256.892C151.724 256.713 151.785 256.489 151.963 256.383C152.082 256.316 154.885 254.745 157.733 256.668C157.903 256.784 157.948 257.015 157.833 257.184C157.761 257.289 157.644 257.347 157.525 257.347Z" fill="#102048"/>
<path d="M148.919 242.663C149.665 244.064 148.366 244.349 146.844 245.156C145.321 245.964 143.762 246.263 143.407 245.591C143.051 244.922 143.996 243.725 145.519 242.914C147.041 242.106 148.342 241.577 148.919 242.663Z" fill="#102048"/>
<path d="M154.471 240.128C154.799 241.38 155.733 240.834 157.092 240.478C158.451 240.121 159.548 239.439 159.392 238.842C159.236 238.245 158.008 238.048 156.649 238.405C155.29 238.761 154.218 239.158 154.471 240.128Z" fill="#102048"/>
<path d="M143.444 258.321C141.31 258.321 139.58 256.59 139.58 254.456C139.58 252.319 141.31 250.592 143.444 250.592C145.579 250.592 147.309 252.319 147.309 254.456C147.309 256.59 145.579 258.321 143.444 258.321Z" fill="#F39176"/>
<path d="M131.966 250.327C134.567 252.332 135.243 255.814 133.477 258.104C131.711 260.391 128.171 260.618 125.57 258.613C122.97 256.607 122.293 253.123 124.059 250.836C125.825 248.546 129.365 248.319 131.966 250.327Z" fill="#F9B384"/>
<path d="M131.068 256.407C130.863 256.407 130.696 256.241 130.696 256.037C130.696 254.941 130.162 253.93 129.268 253.326C128.503 252.814 127.591 252.692 126.829 253.004C126.639 253.079 126.423 252.991 126.346 252.801C126.268 252.611 126.359 252.393 126.549 252.315C127.54 251.912 128.711 252.061 129.682 252.712C130.782 253.452 131.438 254.694 131.438 256.037C131.438 256.241 131.273 256.407 131.068 256.407Z" fill="#102048"/>
<path d="M65.1119 298.418L64.4888 297.841L77.8828 283.357L78.5053 283.934L65.1119 298.418Z" fill="#102048"/>
<path d="M172.224 345.613L171.977 344.802C181.726 341.83 191.186 338.274 199.761 327.553L200.423 328.082C191.698 338.993 182.105 342.6 172.224 345.613Z" fill="#102048"/>
<path d="M178.151 312.766H95.2231C92.2402 312.766 89.8228 315.382 89.8228 318.606V377.815C89.8228 381.041 92.2402 383.657 95.2231 383.657H178.151C181.134 383.657 183.551 381.041 183.551 377.815V318.606C183.551 315.382 181.134 312.766 178.151 312.766Z" fill="#D3DFFF"/>
<path d="M141.065 342.773H132.309C131.059 342.773 130.043 343.811 130.043 345.087V351.337C130.043 352.612 131.059 353.651 132.309 353.651H141.065C142.314 353.651 143.332 352.612 143.332 351.337V345.087C143.332 343.811 142.314 342.773 141.065 342.773ZM141.065 344.47C141.379 344.47 141.635 344.744 141.635 345.087V351.337C141.635 351.676 141.379 351.954 141.065 351.954H132.309C131.994 351.954 131.739 351.676 131.739 351.337V345.087C131.739 344.744 131.994 344.47 132.309 344.47H141.065Z" fill="#1F3C88"/>
<path d="M500 446.566H0V444.87H500V446.566Z" fill="#102048"/>
</svg>
